{
  "accessors": [
    {
      "bufferView": 2,
      "componentType": 5126,
      "count": 65533,
      "max": [
        0.3654649555683136,
        0.34256696701049805,
        0.995822012424469
      ],
      "min": [
        -0.3686099648475647,
        -0.3440919816493988,
        -0.9929190278053284
      ],
      "type": "VEC3"
    },
    {
      "bufferView": 2,
      "byteOffset": 786396,
      "componentType": 5126,
      "count": 65533,
      "max": [
        0.9999887347221375,
        0.9999963641166687,
        0.99994295835495
      ],
      "min": [
        -0.9999895691871643,
        -0.9999879002571106,
        -0.9999786019325256
      ],
      "type": "VEC3"
    },
    {
      "bufferView": 1,
      "componentType": 5126,
      "count": 65533,
      "max": [
        0.9999560117721558,
        0.9999330043792725
      ],
      "min": [
        8.599339707870968e-06,
        2.8252601623535156e-05
      ],
      "type": "VEC2"
    },
    {
      "bufferView": 1,
      "byteOffset": 524264,
      "componentType": 5126,
      "count": 65533,
      "max": [
        0.9999560117721558,
        0.9999330043792725
      ],
      "min": [
        8.599339707870968e-06,
        2.8252601623535156e-05
      ],
      "type": "VEC2"
    },
    {
      "bufferView": 0,
      "componentType": 5125,
      "count": 294834,
      "type": "SCALAR"
    },
    {
      "bufferView": 2,
      "byteOffset": 1572792,
      "componentType": 5126,
      "count": 65532,
      "max": [
        0.2833699584007263,
        0.1496850848197937,
        0.9948679804801941
      ],
      "min": [
        -0.24704697728157043,
        -0.17218399047851563,
        -1.0
      ],
      "type": "VEC3"
    },
    {
      "bufferView": 2,
      "byteOffset": 2359176,
      "componentType": 5126,
      "count": 65532,
      "max": [
        0.9999963045120239,
        0.9999430775642395,
        0.999692440032959
      ],
      "min": [
        -0.9999911189079285,
        -0.9999879002571106,
        -0.9999868869781494
      ],
      "type": "VEC3"
    },
    {
      "bufferView": 1,
      "byteOffset": 1048528,
      "componentType": 5126,
      "count": 65532,
      "max": [
        0.999987006187439,
        0.9999819993972778
      ],
      "min": [
        7.115019980119541e-05,
        1.3947486877441406e-05
      ],
      "type": "VEC2"
    },
    {
      "bufferView": 1,
      "byteOffset": 1572784,
      "componentType": 5126,
      "count": 65532,
      "max": [
        0.999987006187439,
        0.9999819993972778
      ],
      "min": [
        7.115019980119541e-05,
        1.3947486877441406e-05
      ],
      "type": "VEC2"
    },
    {
      "bufferView": 0,
      "byteOffset": 1179336,
      "componentType": 5125,
      "count": 284061,
      "type": "SCALAR"
    },
    {
      "bufferView": 2,
      "byteOffset": 3145560,
      "componentType": 5126,
      "count": 65532,
      "max": [
        0.36443397402763367,
        0.2213599532842636,
        0.9395959973335266
      ],
      "min": [
        -0.33744096755981445,
        0.08082064986228943,
        -0.9596710205078125
      ],
      "type": "VEC3"
    },
    {
      "bufferView": 2,
      "byteOffset": 3931944,
      "componentType": 5126,
      "count": 65532,
      "max": [
        0.9999935030937195,
        0.9999847412109375,
        0.9998189210891724
      ],
      "min": [
        -0.9999819993972778,
        -0.9999595880508423,
        -0.9999171495437622
      ],
      "type": "VEC3"
    },
    {
      "bufferView": 1,
      "byteOffset": 2097040,
      "componentType": 5126,
      "count": 65532,
      "max": [
        0.9999790191650391,
        0.9999970197677612
      ],
      "min": [
        2.3404500097967684e-05,
        1.341104507446289e-05
      ],
      "type": "VEC2"
    },
    {
      "bufferView": 1,
      "byteOffset": 2621296,
      "componentType": 5126,
      "count": 65532,
      "max": [
        0.9999790191650391,
        0.9999970197677612
      ],
      "min": [
        2.3404500097967684e-05,
        1.341104507446289e-05
      ],
      "type": "VEC2"
    },
    {
      "bufferView": 0,
      "byteOffset": 2315580,
      "componentType": 5125,
      "count": 272343,
      "type": "SCALAR"
    },
    {
      "bufferView": 2,
      "byteOffset": 4718328,
      "componentType": 5126,
      "count": 65532,
      "max": [
        0.3686099648475647,
        0.3440919816493988,
        0.6715409755706787
      ],
      "min": [
        -0.3686099648475647,
        0.1549539715051651,
        -0.9449120163917542
      ],
      "type": "VEC3"
    },
    {
      "bufferView": 2,
      "byteOffset": 5504712,
      "componentType": 5126,
      "count": 65532,
      "max": [
        0.9998740553855896,
        0.99998939037323,
        0.99989253282547
      ],
      "min": [
        -0.9999672770500183,
        -0.9999836683273315,
        -0.9999701976776123
      ],
      "type": "VEC3"
    },
    {
      "bufferView": 1,
      "byteOffset": 3145552,
      "componentType": 5126,
      "count": 65532,
      "max": [
        0.9999840259552002,
        0.9999819993972778
      ],
      "min": [
        1.4768300388823263e-05,
        3.039836883544922e-05
      ],
      "type": "VEC2"
    },
    {
      "bufferView": 1,
      "byteOffset": 3669808,
      "componentType": 5126,
      "count": 65532,
      "max": [
        0.9999840259552002,
        0.9999819993972778
      ],
      "min": [
        1.4768300388823263e-05,
        3.039836883544922e-05
      ],
      "type": "VEC2"
    },
    {
      "bufferView": 0,
      "byteOffset": 3404952,
      "componentType": 5125,
      "count": 267033,
      "type": "SCALAR"
    },
    {
      "bufferView": 2,
      "byteOffset": 6291096,
      "componentType": 5126,
      "count": 65532,
      "max": [
        0.3454339802265167,
        0.23011796176433563,
        0.9866660237312317
      ],
      "min": [
        -0.3683389723300934,
        -0.06534986943006516,
        -0.9992380142211914
      ],
      "type": "VEC3"
    },
    {
      "bufferView": 2,
      "byteOffset": 7077480,
      "componentType": 5126,
      "count": 65532,
      "max": [
        0.999988853931427,
        0.9999971389770508,
        0.9993927478790283
      ],
      "min": [
        -0.9999988675117493,
        -0.9999634623527527,
        -0.9999170303344727
      ],
      "type": "VEC3"
    },
    {
      "bufferView": 1,
      "byteOffset": 4194064,
      "componentType": 5126,
      "count": 65532,
      "max": [
        0.999983012676239,
        0.9999899864196777
      ],
      "min": [
        5.68331006434164e-06,
        2.4437904357910156e-05
      ],
      "type": "VEC2"
    },
    {
      "bufferView": 1,
      "byteOffset": 4718320,
      "componentType": 5126,
      "count": 65532,
      "max": [
        0.999983012676239,
        0.9999899864196777
      ],
      "min": [
        5.68331006434164e-06,
        2.4437904357910156e-05
      ],
      "type": "VEC2"
    },
    {
      "bufferView": 0,
      "byteOffset": 4473084,
      "componentType": 5125,
      "count": 265164,
      "type": "SCALAR"
    },
    {
      "bufferView": 2,
      "byteOffset": 7863864,
      "componentType": 5126,
      "count": 65532,
      "max": [
        0.30586397647857666,
        0.042507100850343704,
        1.0
      ],
      "min": [
        -0.2825319766998291,
        -0.11114798486232758,
        -0.9322590231895447
      ],
      "type": "VEC3"
    },
    {
      "bufferView": 2,
      "byteOffset": 8650248,
      "componentType": 5126,
      "count": 65532,
      "max": [
        0.9999885559082031,
        0.9999963641166687,
        0.9999091625213623
      ],
      "min": [
        -0.9999650716781616,
        -0.9999920725822449,
        -0.9998953938484192
      ],
      "type": "VEC3"
    },
    {
      "bufferView": 1,
      "byteOffset": 5242576,
      "componentType": 5126,
      "count": 65532,
      "max": [
        0.999966025352478,
        0.9999849796295166
      ],
      "min": [
        1.0742000085883774e-05,
        3.814697265625e-06
      ],
      "type": "VEC2"
    },
    {
      "bufferView": 1,
      "byteOffset": 5766832,
      "componentType": 5126,
      "count": 65532,
      "max": [
        0.999966025352478,
        0.9999849796295166
      ],
      "min": [
        1.0742000085883774e-05,
        3.814697265625e-06
      ],
      "type": "VEC2"
    },
    {
      "bufferView": 0,
      "byteOffset": 5533740,
      "componentType": 5125,
      "count": 267309,
      "type": "SCALAR"
    },
    {
      "bufferView": 2,
      "byteOffset": 9436632,
      "componentType": 5126,
      "count": 45438,
      "max": [
        0.3062099814414978,
        -0.03420034795999527,
        0.9937689900398254
      ],
      "min": [
        -0.2825319766998291,
        -0.12155904620885849,
        -0.930869996547699
      ],
      "type": "VEC3"
    },
    {
      "bufferView": 2,
      "byteOffset": 9981888,
      "componentType": 5126,
      "count": 45438,
      "max": [
        0.9999993443489075,
        0.9998940825462341,
        0.9999187588691711
      ],
      "min": [
        -0.9999856948852539,
        -0.9999794960021973,
        -0.9998831152915955
      ],
      "type": "VEC3"
    },
    {
      "bufferView": 1,
      "byteOffset": 6291088,
      "componentType": 5126,
      "count": 45438,
      "max": [
        0.9999880194664001,
        0.9999539852142334
      ],
      "min": [
        4.483230077312328e-05,
        5.9604644775390625e-06
      ],
      "type": "VEC2"
    },
    {
      "bufferView": 1,
      "byteOffset": 6654592,
      "componentType": 5126,
      "count": 45438,
      "max": [
        0.9999880194664001,
        0.9999539852142334
      ],
      "min": [
        4.483230077312328e-05,
        5.9604644775390625e-06
      ],
      "type": "VEC2"
    },
    {
      "bufferView": 0,
      "byteOffset": 6602976,
      "componentType": 5125,
      "count": 177348,
      "type": "SCALAR"
    }
  ],
  "asset": {
    "extras": {
      "author": "golden4445 (https://sketchfab.com/golden4445)",
      "license": "CC-BY-4.0 (http://creativecommons.org/licenses/by/4.0/)",
      "source": "https://sketchfab.com/3d-models/wave-girl-2-8c9b982a2425401f847d48d704b0778f",
      "title": "wave girl 2"
    },
    "generator": "Sketchfab-17.3.0",
    "version": "2.0"
  },
  "bufferViews": [
    {
      "buffer": 0,
      "byteLength": 7312368,
      "name": "floatBufferViews",
      "target": 34963
    },
    {
      "buffer": 0,
      "byteLength": 7018096,
      "byteOffset": 7312368,
      "byteStride": 8,
      "name": "floatBufferViews",
      "target": 34962
    },
    {
      "buffer": 0,
      "byteLength": 10527144,
      "byteOffset": 14330464,
      "byteStride": 12,
      "name": "floatBufferViews",
      "target": 34962
    }
  ],
  "buffers": [
    {
      "byteLength": 24857608,
      "uri": "scene.bin"
    }
  ],
  "extensionsUsed": [
    "KHR_materials_unlit"
  ],
  "images": [
    {
      "uri": "textures/Material.001_baseColor.jpeg"
    }
  ],
  "materials": [
    {
      "doubleSided": true,
      "extensions": {
        "KHR_materials_unlit": {}
      },
      "name": "Material.001",
      "pbrMetallicRoughness": {
        "baseColorTexture": {
          "index": 0
        },
        "metallicFactor": 0.0
      }
    }
  ],
  "meshes": [
    {
      "name": "Mesh_0_Material.001_0",
      "primitives": [
        {
          "attributes": {
            "NORMAL": 1,
            "POSITION": 0,
            "TEXCOORD_0": 2,
            "TEXCOORD_1": 3
          },
          "indices": 4,
          "material": 0,
          "mode": 4
        }
      ]
    },
    {
      "name": "Mesh_0_Material.001_0",
      "primitives": [
        {
          "attributes": {
            "NORMAL": 6,
            "POSITION": 5,
            "TEXCOORD_0": 7,
            "TEXCOORD_1": 8
          },
          "indices": 9,
          "material": 0,
          "mode": 4
        }
      ]
    },
    {
      "name": "Mesh_0_Material.001_0",
      "primitives": [
        {
          "attributes": {
            "NORMAL": 11,
            "POSITION": 10,
            "TEXCOORD_0": 12,
            "TEXCOORD_1": 13
          },
          "indices": 14,
          "material": 0,
          "mode": 4
        }
      ]
    },
    {
      "name": "Mesh_0_Material.001_0",
      "primitives": [
        {
          "attributes": {
            "NORMAL": 16,
            "POSITION": 15,
            "TEXCOORD_0": 17,
            "TEXCOORD_1": 18
          },
          "indices": 19,
          "material": 0,
          "mode": 4
        }
      ]
    },
    {
      "name": "Mesh_0_Material.001_0",
      "primitives": [
        {
          "attributes": {
            "NORMAL": 21,
            "POSITION": 20,
            "TEXCOORD_0": 22,
            "TEXCOORD_1": 23
          },
          "indices": 24,
          "material": 0,
          "mode": 4
        }
      ]
    },
    {
      "name": "Mesh_0_Material.001_0",
      "primitives": [
        {
          "attributes": {
            "NORMAL": 26,
            "POSITION": 25,
            "TEXCOORD_0": 27,
            "TEXCOORD_1": 28
          },
          "indices": 29,
          "material": 0,
          "mode": 4
        }
      ]
    },
    {
      "name": "Mesh_0_Material.001_0",
      "primitives": [
        {
          "attributes": {
            "NORMAL": 31,
            "POSITION": 30,
            "TEXCOORD_0": 32,
            "TEXCOORD_1": 33
          },
          "indices": 34,
          "material": 0,
          "mode": 4
        }
      ]
    }
  ],
  "nodes": [
    {
      "children": [
        1
      ],
      "matrix": [
        1.0,
        0.0,
        0.0,
        0.0,
        0.0,
        2.220446049250313e-16,
        -1.0,
        0.0,
        0.0,
        1.0,
        2.220446049250313e-16,
        0.0,
        0.0,
        0.0,
        0.0,
        1.0
      ],
      "name": "Sketchfab_model"
    },
    {
      "children": [
        2
      ],
      "matrix": [
        0.009999999776482582,
        0.0,
        0.0,
        0.0,
        0.0,
        0.0,
        0.009999999776482582,
        0.0,
        0.0,
        -0.009999999776482582,
        0.0,
        0.0,
        0.0,
        0.0,
        0.0,
        1.0
      ],
      "name": "440950b0fa944a028e02f301458a3b8d.fbx"
    },
    {
      "children": [
        3
      ],
      "name": "RootNode"
    },
    {
      "children": [
        4,
        5,
        6,
        7,
        8,
        9,
        10
      ],
      "matrix": [
        100.0,
        0.0,
        0.0,
        0.0,
        0.0,
        -4.371139006309477e-06,
        -99.9999999999999,
        0.0,
        0.0,
        99.9999999999999,
        -4.371139006309477e-06,
        0.0,
        0.0,
        0.0,
        0.0,
        1.0
      ],
      "name": "Mesh_0"
    },
    {
      "mesh": 0,
      "name": "Mesh_0_Material.001_0"
    },
    {
      "mesh": 1,
      "name": "Mesh_0_Material.001_0"
    },
    {
      "mesh": 2,
      "name": "Mesh_0_Material.001_0"
    },
    {
      "mesh": 3,
      "name": "Mesh_0_Material.001_0"
    },
    {
      "mesh": 4,
      "name": "Mesh_0_Material.001_0"
    },
    {
      "mesh": 5,
      "name": "Mesh_0_Material.001_0"
    },
    {
      "mesh": 6,
      "name": "Mesh_0_Material.001_0"
    }
  ],
  "samplers": [
    {
      "magFilter": 9729,
      "minFilter": 9987,
      "wrapS": 10497,
      "wrapT": 10497
    }
  ],
  "scene": 0,
  "scenes": [
    {
      "name": "Sketchfab_Scene",
      "nodes": [
        0
      ]
    }
  ],
  "textures": [
    {
      "sampler": 0,
      "source": 0
    }
  ]
}
