{
  "accessors": [
    {
      "bufferView": 2,
      "componentType": 5126,
      "count": 65532,
      "max": [
        0.5017359256744385,
        0.9559698104858398,
        0.30614757537841797
      ],
      "min": [
        -0.5017359256744385,
        -1.0,
        -0.30299481749534607
      ],
      "type": "VEC3"
    },
    {
      "bufferView": 2,
      "byteOffset": 786384,
      "componentType": 5126,
      "count": 65532,
      "max": [
        0.999996542930603,
        0.997524082660675,
        0.9999554753303528
      ],
      "min": [
        -0.9999920129776001,
        -0.99969083070755,
        -0.9999904036521912
      ],
      "type": "VEC3"
    },
    {
      "bufferView": 1,
      "componentType": 5126,
      "count": 65532,
      "max": [
        0.9972693920135498,
        1.0
      ],
      "min": [
        -1.6722385254297478e-08,
        0.004336893558502197
      ],
      "type": "VEC2"
    },
    {
      "bufferView": 1,
      "byteOffset": 524256,
      "componentType": 5126,
      "count": 65532,
      "max": [
        0.9972693920135498,
        1.0
      ],
      "min": [
        -1.6722385254297478e-08,
        0.004336893558502197
      ],
      "type": "VEC2"
    },
    {
      "bufferView": 1,
      "byteOffset": 1048512,
      "componentType": 5126,
      "count": 65532,
      "max": [
        0.9972693920135498,
        1.0
      ],
      "min": [
        -1.6722385254297478e-08,
        0.004336893558502197
      ],
      "type": "VEC2"
    },
    {
      "bufferView": 1,
      "byteOffset": 1572768,
      "componentType": 5126,
      "count": 65532,
      "max": [
        0.9972693920135498,
        1.0
      ],
      "min": [
        -1.6722385254297478e-08,
        0.004336893558502197
      ],
      "type": "VEC2"
    },
    {
      "bufferView": 0,
      "componentType": 5125,
      "count": 313137,
      "type": "SCALAR"
    },
    {
      "bufferView": 2,
      "byteOffset": 1572768,
      "componentType": 5126,
      "count": 65532,
      "max": [
        0.47511911392211914,
        0.9615768790245056,
        0.3060474693775177
      ],
      "min": [
        -0.4812571704387665,
        -0.9946036338806152,
        -0.3051489591598511
      ],
      "type": "VEC3"
    },
    {
      "bufferView": 2,
      "byteOffset": 2359152,
      "componentType": 5126,
      "count": 65532,
      "max": [
        0.9999884366989136,
        0.9997453689575195,
        0.9999760985374451
      ],
      "min": [
        -0.9999874830245972,
        -0.9997460842132568,
        -0.9999366402626038
      ],
      "type": "VEC3"
    },
    {
      "bufferView": 1,
      "byteOffset": 2097024,
      "componentType": 5126,
      "count": 65532,
      "max": [
        0.9974642395973206,
        1.0
      ],
      "min": [
        -5.5453401870408925e-09,
        0.0015148520469665527
      ],
      "type": "VEC2"
    },
    {
      "bufferView": 1,
      "byteOffset": 2621280,
      "componentType": 5126,
      "count": 65532,
      "max": [
        0.9974642395973206,
        1.0
      ],
      "min": [
        -5.5453401870408925e-09,
        0.0015148520469665527
      ],
      "type": "VEC2"
    },
    {
      "bufferView": 1,
      "byteOffset": 3145536,
      "componentType": 5126,
      "count": 65532,
      "max": [
        0.9974642395973206,
        1.0
      ],
      "min": [
        -5.5453401870408925e-09,
        0.0015148520469665527
      ],
      "type": "VEC2"
    },
    {
      "bufferView": 1,
      "byteOffset": 3669792,
      "componentType": 5126,
      "count": 65532,
      "max": [
        0.9974642395973206,
        1.0
      ],
      "min": [
        -5.5453401870408925e-09,
        0.0015148520469665527
      ],
      "type": "VEC2"
    },
    {
      "bufferView": 0,
      "byteOffset": 1252548,
      "componentType": 5125,
      "count": 289569,
      "type": "SCALAR"
    },
    {
      "bufferView": 2,
      "byteOffset": 3145536,
      "componentType": 5126,
      "count": 65532,
      "max": [
        0.46261972188949585,
        1.0,
        0.23886075615882874
      ],
      "min": [
        -0.4340805113315582,
        -0.8491613268852234,
        -0.11034633964300156
      ],
      "type": "VEC3"
    },
    {
      "bufferView": 2,
      "byteOffset": 3931920,
      "componentType": 5126,
      "count": 65532,
      "max": [
        0.9999697208404541,
        0.9999274015426636,
        0.9999921917915344
      ],
      "min": [
        -0.9999815225601196,
        -0.9999459385871887,
        -0.9999271035194397
      ],
      "type": "VEC3"
    },
    {
      "bufferView": 1,
      "byteOffset": 4194048,
      "componentType": 5126,
      "count": 65532,
      "max": [
        0.9974699020385742,
        1.0
      ],
      "min": [
        -7.687614811402455e-08,
        0.000908970832824707
      ],
      "type": "VEC2"
    },
    {
      "bufferView": 1,
      "byteOffset": 4718304,
      "componentType": 5126,
      "count": 65532,
      "max": [
        0.9974699020385742,
        1.0
      ],
      "min": [
        -7.687614811402455e-08,
        0.000908970832824707
      ],
      "type": "VEC2"
    },
    {
      "bufferView": 1,
      "byteOffset": 5242560,
      "componentType": 5126,
      "count": 65532,
      "max": [
        0.9974699020385742,
        1.0
      ],
      "min": [
        -7.687614811402455e-08,
        0.000908970832824707
      ],
      "type": "VEC2"
    },
    {
      "bufferView": 1,
      "byteOffset": 5766816,
      "componentType": 5126,
      "count": 65532,
      "max": [
        0.9974699020385742,
        1.0
      ],
      "min": [
        -7.687614811402455e-08,
        0.000908970832824707
      ],
      "type": "VEC2"
    },
    {
      "bufferView": 0,
      "byteOffset": 2410824,
      "componentType": 5125,
      "count": 252495,
      "type": "SCALAR"
    },
    {
      "bufferView": 2,
      "byteOffset": 4718304,
      "componentType": 5126,
      "count": 65532,
      "max": [
        0.45246195793151855,
        0.9983819723129272,
        0.17157293856143951
      ],
      "min": [
        -0.47463563084602356,
        -0.9995671510696411,
        -0.16589312255382538
      ],
      "type": "VEC3"
    },
    {
      "bufferView": 2,
      "byteOffset": 5504688,
      "componentType": 5126,
      "count": 65532,
      "max": [
        0.9999816417694092,
        0.9999661445617676,
        0.9999598264694214
      ],
      "min": [
        -0.999958872795105,
        -0.99969083070755,
        -0.9999940991401672
      ],
      "type": "VEC3"
    },
    {
      "bufferView": 1,
      "byteOffset": 6291072,
      "componentType": 5126,
      "count": 65532,
      "max": [
        0.9974465370178223,
        1.0
      ],
      "min": [
        -7.692541004189479e-08,
        0.00038802623748779297
      ],
      "type": "VEC2"
    },
    {
      "bufferView": 1,
      "byteOffset": 6815328,
      "componentType": 5126,
      "count": 65532,
      "max": [
        0.9974465370178223,
        1.0
      ],
      "min": [
        -7.692541004189479e-08,
        0.00038802623748779297
      ],
      "type": "VEC2"
    },
    {
      "bufferView": 1,
      "byteOffset": 7339584,
      "componentType": 5126,
      "count": 65532,
      "max": [
        0.9974465370178223,
        1.0
      ],
      "min": [
        -7.692541004189479e-08,
        0.00038802623748779297
      ],
      "type": "VEC2"
    },
    {
      "bufferView": 1,
      "byteOffset": 7863840,
      "componentType": 5126,
      "count": 65532,
      "max": [
        0.9974465370178223,
        1.0
      ],
      "min": [
        -7.692541004189479e-08,
        0.00038802623748779297
      ],
      "type": "VEC2"
    },
    {
      "bufferView": 0,
      "byteOffset": 3420804,
      "componentType": 5125,
      "count": 241464,
      "type": "SCALAR"
    },
    {
      "bufferView": 2,
      "byteOffset": 6291072,
      "componentType": 5126,
      "count": 65532,
      "max": [
        0.38585251569747925,
        0.996860921382904,
        0.10997429490089417
      ],
      "min": [
        -0.3521117568016052,
        -0.9997377991676331,
        -0.2838381230831146
      ],
      "type": "VEC3"
    },
    {
      "bufferView": 2,
      "byteOffset": 7077456,
      "componentType": 5126,
      "count": 65532,
      "max": [
        0.9999767541885376,
        0.999928891658783,
        0.9999873638153076
      ],
      "min": [
        -0.9999951124191284,
        -0.9998107552528381,
        -0.999998927116394
      ],
      "type": "VEC3"
    },
    {
      "bufferView": 1,
      "byteOffset": 8388096,
      "componentType": 5126,
      "count": 65532,
      "max": [
        0.9974581003189087,
        1.0
      ],
      "min": [
        -2.2930892740191666e-08,
        0.000927269458770752
      ],
      "type": "VEC2"
    },
    {
      "bufferView": 1,
      "byteOffset": 8912352,
      "componentType": 5126,
      "count": 65532,
      "max": [
        0.9974581003189087,
        1.0
      ],
      "min": [
        -2.2930892740191666e-08,
        0.000927269458770752
      ],
      "type": "VEC2"
    },
    {
      "bufferView": 1,
      "byteOffset": 9436608,
      "componentType": 5126,
      "count": 65532,
      "max": [
        0.9974581003189087,
        1.0
      ],
      "min": [
        -2.2930892740191666e-08,
        0.000927269458770752
      ],
      "type": "VEC2"
    },
    {
      "bufferView": 1,
      "byteOffset": 9960864,
      "componentType": 5126,
      "count": 65532,
      "max": [
        0.9974581003189087,
        1.0
      ],
      "min": [
        -2.2930892740191666e-08,
        0.000927269458770752
      ],
      "type": "VEC2"
    },
    {
      "bufferView": 0,
      "byteOffset": 4386660,
      "componentType": 5125,
      "count": 267810,
      "type": "SCALAR"
    },
    {
      "bufferView": 2,
      "byteOffset": 7863840,
      "componentType": 5126,
      "count": 65532,
      "max": [
        0.38612115383148193,
        0.9711869955062866,
        -0.06733924895524979
      ],
      "min": [
        -0.32249805331230164,
        -0.9985242486000061,
        -0.29771101474761963
      ],
      "type": "VEC3"
    },
    {
      "bufferView": 2,
      "byteOffset": 8650224,
      "componentType": 5126,
      "count": 65532,
      "max": [
        0.9998447895050049,
        0.9999723434448242,
        0.9999744892120361
      ],
      "min": [
        -0.9999775886535645,
        -0.9999393224716187,
        -0.9999992251396179
      ],
      "type": "VEC3"
    },
    {
      "bufferView": 1,
      "byteOffset": 10485120,
      "componentType": 5126,
      "count": 65532,
      "max": [
        0.9974607229232788,
        0.9986753463745117
      ],
      "min": [
        -1.0246581361172957e-08,
        0.0002225041389465332
      ],
      "type": "VEC2"
    },
    {
      "bufferView": 1,
      "byteOffset": 11009376,
      "componentType": 5126,
      "count": 65532,
      "max": [
        0.9974607229232788,
        0.9986753463745117
      ],
      "min": [
        -1.0246581361172957e-08,
        0.0002225041389465332
      ],
      "type": "VEC2"
    },
    {
      "bufferView": 1,
      "byteOffset": 11533632,
      "componentType": 5126,
      "count": 65532,
      "max": [
        0.9974607229232788,
        0.9986753463745117
      ],
      "min": [
        -1.0246581361172957e-08,
        0.0002225041389465332
      ],
      "type": "VEC2"
    },
    {
      "bufferView": 1,
      "byteOffset": 12057888,
      "componentType": 5126,
      "count": 65532,
      "max": [
        0.9974607229232788,
        0.9986753463745117
      ],
      "min": [
        -1.0246581361172957e-08,
        0.0002225041389465332
      ],
      "type": "VEC2"
    },
    {
      "bufferView": 0,
      "byteOffset": 5457900,
      "componentType": 5125,
      "count": 242367,
      "type": "SCALAR"
    },
    {
      "bufferView": 2,
      "byteOffset": 9436608,
      "componentType": 5126,
      "count": 65532,
      "max": [
        0.5003001689910889,
        0.9968103170394897,
        0.11206751316785812
      ],
      "min": [
        -0.4172896146774292,
        -0.9947057366371155,
        -0.30614757537841797
      ],
      "type": "VEC3"
    },
    {
      "bufferView": 2,
      "byteOffset": 10222992,
      "componentType": 5126,
      "count": 65532,
      "max": [
        0.999980628490448,
        0.9999827742576599,
        0.9999672174453735
      ],
      "min": [
        -0.9997594952583313,
        -0.9999855756759644,
        -0.999998927116394
      ],
      "type": "VEC3"
    },
    {
      "bufferView": 1,
      "byteOffset": 12582144,
      "componentType": 5126,
      "count": 65532,
      "max": [
        0.9974595904350281,
        1.0
      ],
      "min": [
        -1.4019462923897663e-08,
        -1.1920928955078125e-07
      ],
      "type": "VEC2"
    },
    {
      "bufferView": 1,
      "byteOffset": 13106400,
      "componentType": 5126,
      "count": 65532,
      "max": [
        0.9974595904350281,
        1.0
      ],
      "min": [
        -1.4019462923897663e-08,
        -1.1920928955078125e-07
      ],
      "type": "VEC2"
    },
    {
      "bufferView": 1,
      "byteOffset": 13630656,
      "componentType": 5126,
      "count": 65532,
      "max": [
        0.9974595904350281,
        1.0
      ],
      "min": [
        -1.4019462923897663e-08,
        -1.1920928955078125e-07
      ],
      "type": "VEC2"
    },
    {
      "bufferView": 1,
      "byteOffset": 14154912,
      "componentType": 5126,
      "count": 65532,
      "max": [
        0.9974595904350281,
        1.0
      ],
      "min": [
        -1.4019462923897663e-08,
        -1.1920928955078125e-07
      ],
      "type": "VEC2"
    },
    {
      "bufferView": 0,
      "byteOffset": 6427368,
      "componentType": 5125,
      "count": 200640,
      "type": "SCALAR"
    },
    {
      "bufferView": 2,
      "byteOffset": 11009376,
      "componentType": 5126,
      "count": 65532,
      "max": [
        0.5016052722930908,
        0.9997609257698059,
        0.12099282443523407
      ],
      "min": [
        -0.49975767731666565,
        -0.993134081363678,
        -0.005633567925542593
      ],
      "type": "VEC3"
    },
    {
      "bufferView": 2,
      "byteOffset": 11795760,
      "componentType": 5126,
      "count": 65532,
      "max": [
        0.9999884366989136,
        0.9999490976333618,
        0.9999932646751404
      ],
      "min": [
        -0.9999217391014099,
        -0.9999905228614807,
        -0.9999954700469971
      ],
      "type": "VEC3"
    },
    {
      "bufferView": 1,
      "byteOffset": 14679168,
      "componentType": 5126,
      "count": 65532,
      "max": [
        0.9974620938301086,
        1.0
      ],
      "min": [
        1.2967597662338903e-08,
        0.0006429553031921387
      ],
      "type": "VEC2"
    },
    {
      "bufferView": 1,
      "byteOffset": 15203424,
      "componentType": 5126,
      "count": 65532,
      "max": [
        0.9974620938301086,
        1.0
      ],
      "min": [
        1.2967597662338903e-08,
        0.0006429553031921387
      ],
      "type": "VEC2"
    },
    {
      "bufferView": 1,
      "byteOffset": 15727680,
      "componentType": 5126,
      "count": 65532,
      "max": [
        0.9974620938301086,
        1.0
      ],
      "min": [
        1.2967597662338903e-08,
        0.0006429553031921387
      ],
      "type": "VEC2"
    },
    {
      "bufferView": 1,
      "byteOffset": 16251936,
      "componentType": 5126,
      "count": 65532,
      "max": [
        0.9974620938301086,
        1.0
      ],
      "min": [
        1.2967597662338903e-08,
        0.0006429553031921387
      ],
      "type": "VEC2"
    },
    {
      "bufferView": 0,
      "byteOffset": 7229928,
      "componentType": 5125,
      "count": 198747,
      "type": "SCALAR"
    },
    {
      "bufferView": 2,
      "byteOffset": 12582144,
      "componentType": 5126,
      "count": 6790,
      "max": [
        0.40472593903541565,
        0.9683407545089722,
        0.12139934301376343
      ],
      "min": [
        -0.49991145730018616,
        -0.9949427843093872,
        0.09419118613004684
      ],
      "type": "VEC3"
    },
    {
      "bufferView": 2,
      "byteOffset": 12663624,
      "componentType": 5126,
      "count": 6790,
      "max": [
        0.9983331561088562,
        0.999840497970581,
        0.9997837543487549
      ],
      "min": [
        -0.9995520710945129,
        -0.9974029660224915,
        -0.9977174997329712
      ],
      "type": "VEC3"
    },
    {
      "bufferView": 1,
      "byteOffset": 16776192,
      "componentType": 5126,
      "count": 6790,
      "max": [
        0.9974602460861206,
        1.0
      ],
      "min": [
        0.0039162058383226395,
        0.0011222362518310547
      ],
      "type": "VEC2"
    },
    {
      "bufferView": 1,
      "byteOffset": 16830512,
      "componentType": 5126,
      "count": 6790,
      "max": [
        0.9974602460861206,
        1.0
      ],
      "min": [
        0.0039162058383226395,
        0.0011222362518310547
      ],
      "type": "VEC2"
    },
    {
      "bufferView": 1,
      "byteOffset": 16884832,
      "componentType": 5126,
      "count": 6790,
      "max": [
        0.9974602460861206,
        1.0
      ],
      "min": [
        0.0039162058383226395,
        0.0011222362518310547
      ],
      "type": "VEC2"
    },
    {
      "bufferView": 1,
      "byteOffset": 16939152,
      "componentType": 5126,
      "count": 6790,
      "max": [
        0.9974602460861206,
        1.0
      ],
      "min": [
        0.0039162058383226395,
        0.0011222362518310547
      ],
      "type": "VEC2"
    },
    {
      "bufferView": 0,
      "byteOffset": 8024916,
      "componentType": 5125,
      "count": 12024,
      "type": "SCALAR"
    }
  ],
  "asset": {
    "extras": {
      "author": "ItsKrish7 (https://sketchfab.com/ItsKrish7)",
      "license": "CC-BY-4.0 (http://creativecommons.org/licenses/by/4.0/)",
      "source": "https://sketchfab.com/3d-models/fantasy-queen-57420b0e6cc54e998f85bb88957b625f",
      "title": "Fantasy Queen"
    },
    "generator": "Sketchfab-17.1.0",
    "version": "2.0"
  },
  "bufferViews": [
    {
      "buffer": 0,
      "byteLength": 8073012,
      "name": "floatBufferViews",
      "target": 34963
    },
    {
      "buffer": 0,
      "byteLength": 16993472,
      "byteOffset": 8073012,
      "byteStride": 8,
      "name": "floatBufferViews",
      "target": 34962
    },
    {
      "buffer": 0,
      "byteLength": 12745104,
      "byteOffset": 25066484,
      "byteStride": 12,
      "name": "floatBufferViews",
      "target": 34962
    }
  ],
  "buffers": [
    {
      "byteLength": 37811588,
      "uri": "scene.bin"
    }
  ],
  "extensionsUsed": [
    "KHR_materials_unlit"
  ],
  "images": [
    {
      "uri": "textures/material_0_baseColor.jpeg"
    }
  ],
  "materials": [
    {
      "doubleSided": true,
      "extensions": {
        "KHR_materials_unlit": {}
      },
      "name": "material_0",
      "pbrMetallicRoughness": {
        "baseColorTexture": {
          "index": 0
        },
        "metallicFactor": 0.0
      }
    }
  ],
  "meshes": [
    {
      "name": "Object_0",
      "primitives": [
        {
          "attributes": {
            "NORMAL": 1,
            "POSITION": 0,
            "TEXCOORD_0": 2,
            "TEXCOORD_1": 3,
            "TEXCOORD_2": 4,
            "TEXCOORD_3": 5
          },
          "indices": 6,
          "material": 0,
          "mode": 4
        }
      ]
    },
    {
      "name": "Object_1",
      "primitives": [
        {
          "attributes": {
            "NORMAL": 8,
            "POSITION": 7,
            "TEXCOORD_0": 9,
            "TEXCOORD_1": 10,
            "TEXCOORD_2": 11,
            "TEXCOORD_3": 12
          },
          "indices": 13,
          "material": 0,
          "mode": 4
        }
      ]
    },
    {
      "name": "Object_2",
      "primitives": [
        {
          "attributes": {
            "NORMAL": 15,
            "POSITION": 14,
            "TEXCOORD_0": 16,
            "TEXCOORD_1": 17,
            "TEXCOORD_2": 18,
            "TEXCOORD_3": 19
          },
          "indices": 20,
          "material": 0,
          "mode": 4
        }
      ]
    },
    {
      "name": "Object_3",
      "primitives": [
        {
          "attributes": {
            "NORMAL": 22,
            "POSITION": 21,
            "TEXCOORD_0": 23,
            "TEXCOORD_1": 24,
            "TEXCOORD_2": 25,
            "TEXCOORD_3": 26
          },
          "indices": 27,
          "material": 0,
          "mode": 4
        }
      ]
    },
    {
      "name": "Object_4",
      "primitives": [
        {
          "attributes": {
            "NORMAL": 29,
            "POSITION": 28,
            "TEXCOORD_0": 30,
            "TEXCOORD_1": 31,
            "TEXCOORD_2": 32,
            "TEXCOORD_3": 33
          },
          "indices": 34,
          "material": 0,
          "mode": 4
        }
      ]
    },
    {
      "name": "Object_5",
      "primitives": [
        {
          "attributes": {
            "NORMAL": 36,
            "POSITION": 35,
            "TEXCOORD_0": 37,
            "TEXCOORD_1": 38,
            "TEXCOORD_2": 39,
            "TEXCOORD_3": 40
          },
          "indices": 41,
          "material": 0,
          "mode": 4
        }
      ]
    },
    {
      "name": "Object_6",
      "primitives": [
        {
          "attributes": {
            "NORMAL": 43,
            "POSITION": 42,
            "TEXCOORD_0": 44,
            "TEXCOORD_1": 45,
            "TEXCOORD_2": 46,
            "TEXCOORD_3": 47
          },
          "indices": 48,
          "material": 0,
          "mode": 4
        }
      ]
    },
    {
      "name": "Object_7",
      "primitives": [
        {
          "attributes": {
            "NORMAL": 50,
            "POSITION": 49,
            "TEXCOORD_0": 51,
            "TEXCOORD_1": 52,
            "TEXCOORD_2": 53,
            "TEXCOORD_3": 54
          },
          "indices": 55,
          "material": 0,
          "mode": 4
        }
      ]
    },
    {
      "name": "Object_8",
      "primitives": [
        {
          "attributes": {
            "NORMAL": 57,
            "POSITION": 56,
            "TEXCOORD_0": 58,
            "TEXCOORD_1": 59,
            "TEXCOORD_2": 60,
            "TEXCOORD_3": 61
          },
          "indices": 62,
          "material": 0,
          "mode": 4
        }
      ]
    }
  ],
  "nodes": [
    {
      "children": [
        1
      ],
      "matrix": [
        1.0,
        0.0,
        0.0,
        0.0,
        0.0,
        2.220446049250313e-16,
        -1.0,
        0.0,
        0.0,
        1.0,
        2.220446049250313e-16,
        0.0,
        0.0,
        0.0,
        0.0,
        1.0
      ],
      "name": "Sketchfab_model"
    },
    {
      "children": [
        2
      ],
      "name": "root"
    },
    {
      "children": [
        3
      ],
      "matrix": [
        1.0,
        0.0,
        0.0,
        0.0,
        0.0,
        2.220446049250313e-16,
        1.0,
        0.0,
        0.0,
        -1.0,
        2.220446049250313e-16,
        0.0,
        0.0,
        0.0,
        0.0,
        1.0
      ],
      "name": "GLTF_SceneRootNode"
    },
    {
      "children": [
        4,
        5,
        6,
        7,
        8,
        9,
        10,
        11,
        12
      ],
      "name": "_0"
    },
    {
      "mesh": 0,
      "name": "Object_4"
    },
    {
      "mesh": 1,
      "name": "Object_5"
    },
    {
      "mesh": 2,
      "name": "Object_6"
    },
    {
      "mesh": 3,
      "name": "Object_7"
    },
    {
      "mesh": 4,
      "name": "Object_8"
    },
    {
      "mesh": 5,
      "name": "Object_9"
    },
    {
      "mesh": 6,
      "name": "Object_10"
    },
    {
      "mesh": 7,
      "name": "Object_11"
    },
    {
      "mesh": 8,
      "name": "Object_12"
    }
  ],
  "samplers": [
    {
      "magFilter": 9729,
      "minFilter": 9987,
      "wrapS": 10497,
      "wrapT": 10497
    }
  ],
  "scene": 0,
  "scenes": [
    {
      "name": "Sketchfab_Scene",
      "nodes": [
        0
      ]
    }
  ],
  "textures": [
    {
      "sampler": 0,
      "source": 0
    }
  ]
}
